<svg aria-hidden="true" style="position: absolute; width: 0; height: 0; overflow: hidden;" version="1.1" xmlns="http://www.w3.org/2000/svg" xmlns:xlink="http://www.w3.org/1999/xlink">
<defs>

<!-- HERB -->

    <symbol id="icon-tryzub" viewBox="0 0 19 32">
        <path fill="#50ab09" style="fill: var(--color1, #50ab09)" d="M9.632 0.080c-0.742 0.842-1.194 1.944-1.194 3.154 0.044 2.656 0.369 5.309 0.398 7.96 0.059 2.476-0.683 4.8-1.586 7.069-0.301 0.626-0.626 1.239-0.951 1.854l-0.955-0.193c-0.862-0.172-1.423-1.010-1.25-1.872 0.15-0.754 0.814-1.282 1.555-1.282l0.349 0.037-0.778-6.496c-0.254-2.89-1.746-5.429-3.94-7.077-0.377-0.283-0.778-0.543-1.194-0.771v23.061h5.324c0.398 2.157 1.587 4.044 3.259 5.333 0.397 0.274 0.731 0.635 0.97 1.057 0.239-0.422 0.572-0.783 0.97-1.057 1.672-1.293 2.861-3.175 3.259-5.333h5.324v-23.061c-0.416 0.228-0.817 0.488-1.194 0.771-2.197 1.65-3.686 4.187-3.94 7.077l-0.778 6.496 0.349-0.037c0.74 0.003 1.404 0.527 1.555 1.282 0.172 0.862-0.388 1.7-1.25 1.872l-0.955 0.193c-0.326-0.614-0.651-1.227-0.951-1.854-0.903-2.267-1.645-4.591-1.586-7.069 0.029-2.659 0.354-5.309 0.398-7.96 0-1.21-0.452-2.308-1.194-3.154zM1.672 5.787c1.030 1.209 1.722 2.714 1.926 4.373l0.637 5.357c-0.816 0.406-1.433 1.151-1.667 2.053h-0.902v-11.781zM17.592 5.787v11.781h-0.902c-0.232-0.901-0.851-1.646-1.667-2.053l0.637-5.357c0.206-1.657 0.898-3.163 1.926-4.373zM9.632 16.557c0.427 1.399 1.016 2.73 1.747 3.963-0.696 0.211-1.301 0.622-1.747 1.175-0.447-0.553-1.052-0.963-1.747-1.176 0.732-1.235 1.32-2.563 1.747-3.962zM1.672 19.163h0.902c0.284 1.099 1.142 1.967 2.229 2.27l0.765 0.174c-0.205 0.742-0.317 1.52-0.317 2.332h-3.582v-4.776zM16.693 19.163h0.902v4.776h-3.582c0-0.807-0.112-1.59-0.317-2.332l0.765-0.174c1.091-0.303 1.948-1.172 2.229-2.27zM7.124 21.973c0.966 0.136 1.71 0.963 1.71 1.965h-1.99c0-0.682 0.101-1.34 0.28-1.965zM12.137 21.973c0.179 0.625 0.28 1.282 0.28 1.965h-1.99c0-1.004 0.744-1.829 1.71-1.965zM7.026 25.532h1.809v3.351c-0.876-0.919-1.512-2.070-1.809-3.351zM10.428 25.532h1.809c-0.293 1.282-0.931 2.433-1.809 3.351v-3.351z"></path>
    </symbol>

<!-- CHARGE -->

    <symbol id="icon-charge" viewBox="0 0 32 32">
        <path fill="#50ab09" style="fill: var(--color1, #50ab09)" d="M27.229 21.811l-0.932 0.932-1.051-1.051 0.932-0.932c0.076-0.076 0.119-0.179 0.119-0.287s-0.043-0.211-0.119-0.287c-0.076-0.076-0.179-0.119-0.287-0.119s-0.211 0.043-0.287 0.119l-0.932 0.932-0.525-0.525c-0.038-0.038-0.082-0.068-0.132-0.088s-0.102-0.031-0.155-0.031c-0.053 0-0.106 0.011-0.155 0.031s-0.094 0.050-0.132 0.088l-1.863 1.863c-0.228 0.229-0.356 0.539-0.356 0.862s0.128 0.633 0.356 0.862l0.077 0.077c-1.797 1.287-3.9 1.974-6.121 1.974-5.824 0-10.563-4.738-10.563-10.562 0-0.672-0.547-1.219-1.219-1.219s-1.219 0.547-1.219 1.219c0 7.168 5.832 13 13 13 2.844-0.004 5.609-0.938 7.872-2.66l0.273 0.273c0.229 0.23 0.535 0.356 0.862 0.356s0.633-0.127 0.862-0.356l1.863-1.863c0.038-0.038 0.068-0.082 0.088-0.132s0.031-0.102 0.031-0.155-0.011-0.106-0.031-0.155c-0.020-0.049-0.050-0.094-0.088-0.132l-0.525-0.525 0.932-0.932c0.038-0.038 0.068-0.082 0.088-0.132s0.031-0.102 0.031-0.155c0-0.053-0.011-0.106-0.031-0.155s-0.050-0.094-0.088-0.132c-0.038-0.038-0.083-0.068-0.132-0.088s-0.102-0.031-0.155-0.031c-0.053 0-0.106 0.010-0.155 0.031s-0.094 0.050-0.132 0.088zM15.667 27.854c-6.72 0-12.188-5.467-12.188-12.187 0.005-0.105 0.050-0.203 0.125-0.276s0.176-0.113 0.281-0.113 0.205 0.040 0.281 0.113c0.076 0.072 0.121 0.171 0.125 0.276 0 6.272 5.102 11.375 11.375 11.375 2.437 0 4.743-0.766 6.702-2.204l0.584 0.584c-2.117 1.587-4.623 2.433-7.286 2.433zM24.96 25.705c-0.078 0.073-0.18 0.114-0.287 0.114s-0.21-0.041-0.287-0.114l-2.101-2.101c-0.076-0.076-0.119-0.18-0.119-0.287s0.043-0.211 0.119-0.287l1.576-1.576 2.676 2.676-1.576 1.576z"></path>
        <path fill="#50ab09" style="fill: var(--color1, #50ab09)" d="M16.597 8.778c-0.083-0.025-0.173-0.023-0.255 0.006s-0.153 0.084-0.201 0.157l-4.875 7.313c-0.041 0.061-0.064 0.132-0.068 0.206s0.013 0.147 0.048 0.211c0.035 0.065 0.086 0.119 0.149 0.157s0.135 0.058 0.209 0.058h2.844v5.281c-0 0.087 0.028 0.172 0.080 0.242s0.125 0.121 0.208 0.147c0.083 0.025 0.173 0.023 0.255-0.006s0.153-0.085 0.201-0.157l4.875-7.313c0.041-0.061 0.064-0.132 0.068-0.206s-0.013-0.147-0.048-0.211c-0.035-0.065-0.086-0.119-0.149-0.157s-0.135-0.058-0.209-0.058h-2.844v-5.281c0-0.087-0.028-0.172-0.080-0.242s-0.125-0.121-0.208-0.147zM18.97 15.26l-3.71 5.564v-4.346c0-0.108-0.043-0.211-0.119-0.287s-0.18-0.119-0.287-0.119h-2.491l3.71-5.564v4.346c0 0.108 0.043 0.211 0.119 0.287s0.18 0.119 0.287 0.119h2.491z"></path>
        <path fill="#50ab09" style="fill: var(--color1, #50ab09)" d="M15.667 2.667c-2.844 0.004-5.609 0.938-7.872 2.66l-0.273-0.273c-0.459-0.459-1.265-0.459-1.723 0l-1.863 1.863c-0.038 0.038-0.068 0.082-0.088 0.132s-0.031 0.102-0.031 0.155 0.011 0.106 0.031 0.155c0.020 0.049 0.050 0.094 0.088 0.132l0.525 0.525-0.932 0.932c-0.038 0.038-0.068 0.082-0.088 0.132s-0.031 0.102-0.031 0.155c0 0.053 0.010 0.106 0.031 0.155s0.050 0.094 0.088 0.132 0.083 0.068 0.132 0.088c0.049 0.020 0.102 0.031 0.155 0.031s0.106-0.010 0.155-0.031c0.049-0.020 0.094-0.050 0.132-0.088l0.932-0.932 1.051 1.051-0.932 0.932c-0.038 0.038-0.068 0.082-0.088 0.132s-0.031 0.102-0.031 0.155c0 0.053 0.011 0.106 0.031 0.155s0.050 0.094 0.088 0.132 0.083 0.068 0.132 0.088c0.049 0.020 0.102 0.031 0.155 0.031s0.106-0.010 0.155-0.031c0.049-0.020 0.094-0.050 0.132-0.088l0.932-0.932 0.525 0.525c0.038 0.038 0.082 0.068 0.132 0.088s0.102 0.031 0.156 0.031c0.053 0 0.106-0.011 0.156-0.031s0.094-0.051 0.132-0.088l1.863-1.863c0.228-0.229 0.356-0.539 0.356-0.862s-0.128-0.633-0.356-0.862l-0.077-0.077c1.797-1.288 3.9-1.974 6.121-1.974 5.824 0 10.562 4.739 10.562 10.563 0 0.672 0.547 1.219 1.219 1.219s1.219-0.547 1.219-1.219c0-7.168-5.832-13-13-13zM9.049 8.304l-1.576 1.576-2.676-2.676 1.576-1.576c0.078-0.073 0.18-0.114 0.287-0.114s0.21 0.041 0.287 0.114l2.101 2.101c0.076 0.076 0.119 0.18 0.119 0.287s-0.043 0.211-0.119 0.287zM27.448 16.073c-0.224 0-0.406-0.182-0.406-0.406 0-6.273-5.103-11.375-11.375-11.375-2.437 0-4.743 0.766-6.702 2.204l-0.583-0.583c2.097-1.567 4.662-2.434 7.286-2.434 6.72 0 12.187 5.467 12.187 12.188 0 0.224-0.182 0.406-0.406 0.406z"></path>
    </symbol>

    <!-- DESK -->

    <symbol id="icon-desk" viewBox="0 0 32 32">
        <path fill="#50ab09" style="fill: var(--color1, #50ab09)" d="M20.333 23.695c0 0.221-0.179 0.4-0.4 0.4h-0.010c-0.221 0-0.4-0.179-0.4-0.4v-0.010c0-0.221 0.179-0.4 0.4-0.4h0.010c0.221 0 0.4 0.179 0.4 0.4v0.010zM18.714 23.695c0 0.221-0.179 0.4-0.4 0.4h-0.010c-0.221 0-0.4-0.179-0.4-0.4v-0.010c0-0.221 0.179-0.4 0.4-0.4h0.010c0.221 0 0.4 0.179 0.4 0.4v0.010zM17.095 23.695c0 0.221-0.179 0.4-0.4 0.4h-0.010c-0.221 0-0.4-0.179-0.4-0.4v-0.010c0-0.221 0.179-0.4 0.4-0.4h0.010c0.221 0 0.4 0.179 0.4 0.4v0.010zM15.476 23.695c0 0.221-0.179 0.4-0.4 0.4h-0.010c-0.221 0-0.4-0.179-0.4-0.4v-0.010c0-0.221 0.179-0.4 0.4-0.4h0.010c0.221 0 0.4 0.179 0.4 0.4v0.010zM13.857 23.695c0 0.221-0.179 0.4-0.4 0.4h-0.010c-0.221 0-0.4-0.179-0.4-0.4v-0.010c0-0.221 0.179-0.4 0.4-0.4h0.010c0.221 0 0.4 0.179 0.4 0.4v0.010zM12.238 23.695c0 0.221-0.179 0.4-0.4 0.4h-0.010c-0.221 0-0.4-0.179-0.4-0.4v-0.010c0-0.221 0.179-0.4 0.4-0.4h0.010c0.221 0 0.4 0.179 0.4 0.4v0.010zM10.619 23.695c0 0.221-0.179 0.4-0.4 0.4h-0.010c-0.221 0-0.4-0.179-0.4-0.4v-0.010c0-0.221 0.179-0.4 0.4-0.4h0.010c0.221 0 0.4 0.179 0.4 0.4v0.010zM9 23.695c0 0.221-0.179 0.4-0.4 0.4h-0.010c-0.221 0-0.4-0.179-0.4-0.4v-0.010c0-0.221 0.179-0.4 0.4-0.4h0.010c0.221 0 0.4 0.179 0.4 0.4v0.010zM7.381 23.695c0 0.221-0.179 0.4-0.4 0.4h-0.010c-0.221 0-0.4-0.179-0.4-0.4v-0.010c0-0.221 0.179-0.4 0.4-0.4h0.010c0.221 0 0.4 0.179 0.4 0.4v0.010zM5.762 23.695c0 0.221-0.179 0.4-0.4 0.4h-0.010c-0.221 0-0.4-0.179-0.4-0.4v-0.010c0-0.221 0.179-0.4 0.4-0.4h0.010c0.221 0 0.4 0.179 0.4 0.4v0.010zM20.333 25.314c0 0.221-0.179 0.4-0.4 0.4h-0.010c-0.221 0-0.4-0.179-0.4-0.4v-0.010c0-0.221 0.179-0.4 0.4-0.4h0.010c0.221 0 0.4 0.179 0.4 0.4v0.010zM18.714 25.314c0 0.221-0.179 0.4-0.4 0.4h-0.010c-0.221 0-0.4-0.179-0.4-0.4v-0.010c0-0.221 0.179-0.4 0.4-0.4h0.010c0.221 0 0.4 0.179 0.4 0.4v0.010zM17.095 25.314c0 0.221-0.179 0.4-0.4 0.4h-0.010c-0.221 0-0.4-0.179-0.4-0.4v-0.010c0-0.221 0.179-0.4 0.4-0.4h0.010c0.221 0 0.4 0.179 0.4 0.4v0.010zM15.476 25.314c0 0.221-0.179 0.4-0.4 0.4h-0.010c-0.221 0-0.4-0.179-0.4-0.4v-0.010c0-0.221 0.179-0.4 0.4-0.4h0.010c0.221 0 0.4 0.179 0.4 0.4v0.010zM13.857 25.314c0 0.221-0.179 0.4-0.4 0.4h-0.010c-0.221 0-0.4-0.179-0.4-0.4v-0.010c0-0.221 0.179-0.4 0.4-0.4h0.010c0.221 0 0.4 0.179 0.4 0.4v0.010zM12.238 25.314c0 0.221-0.179 0.4-0.4 0.4h-0.010c-0.221 0-0.4-0.179-0.4-0.4v-0.010c0-0.221 0.179-0.4 0.4-0.4h0.010c0.221 0 0.4 0.179 0.4 0.4v0.010zM10.619 25.314c0 0.221-0.179 0.4-0.4 0.4h-0.010c-0.221 0-0.4-0.179-0.4-0.4v-0.010c0-0.221 0.179-0.4 0.4-0.4h0.010c0.221 0 0.4 0.179 0.4 0.4v0.010zM9 25.314c0 0.221-0.179 0.4-0.4 0.4h-0.010c-0.221 0-0.4-0.179-0.4-0.4v-0.010c0-0.221 0.179-0.4 0.4-0.4h0.010c0.221 0 0.4 0.179 0.4 0.4v0.010zM7.381 25.314c0 0.221-0.179 0.4-0.4 0.4h-0.010c-0.221 0-0.4-0.179-0.4-0.4v-0.010c0-0.221 0.179-0.4 0.4-0.4h0.010c0.221 0 0.4 0.179 0.4 0.4v0.010zM5.762 25.314c0 0.221-0.179 0.4-0.4 0.4h-0.010c-0.221 0-0.4-0.179-0.4-0.4v-0.010c0-0.221 0.179-0.4 0.4-0.4h0.010c0.221 0 0.4 0.179 0.4 0.4v0.010zM24.381 6.686c0-0.221 0.179-0.4 0.4-0.4h2.438c0.221 0 0.4 0.179 0.4 0.4v0.010c0 0.221-0.179 0.4-0.4 0.4h-2.438c-0.221 0-0.4-0.179-0.4-0.4v-0.010zM24.381 8.305c0-0.221 0.179-0.4 0.4-0.4h2.438c0.221 0 0.4 0.179 0.4 0.4v0.010c0 0.221-0.179 0.4-0.4 0.4h-2.438c-0.221 0-0.4-0.179-0.4-0.4v-0.010zM24.381 9.924c0-0.221 0.179-0.4 0.4-0.4h2.438c0.221 0 0.4 0.179 0.4 0.4v0.010c0 0.221-0.179 0.4-0.4 0.4h-2.438c-0.221 0-0.4-0.179-0.4-0.4v-0.010z"></path>
        <path fill="#50ab09" style="fill: var(--color1, #50ab09)" d="M28.024 4.667h-4.048c-0.671 0-1.214 0.544-1.214 1.214v14.167h6.476v-14.167c0-0.671-0.544-1.214-1.214-1.214zM28.429 19.238h-4.857v-13.357c0-0.107 0.043-0.21 0.119-0.286s0.179-0.119 0.286-0.119h4.048c0.107 0 0.21 0.043 0.286 0.119s0.119 0.179 0.119 0.286v13.357zM20.738 21.667h-16.19c-0.671 0-1.214 0.544-1.214 1.214v3.238c0 0.671 0.544 1.214 1.214 1.214h16.19c0.671 0 1.214-0.544 1.214-1.214v-3.238c0-0.671-0.544-1.214-1.214-1.214zM21.143 26.119c0 0.107-0.043 0.21-0.119 0.286s-0.179 0.119-0.286 0.119h-16.19c-0.107 0-0.21-0.043-0.286-0.119s-0.119-0.179-0.119-0.286v-3.238c0-0.107 0.043-0.21 0.119-0.286s0.179-0.119 0.286-0.119h16.19c0.107 0 0.21 0.043 0.286 0.119s0.119 0.179 0.119 0.286v3.238zM25.595 21.667c-1.117 0.001-2.022 0.907-2.024 2.024v1.619c0 1.118 0.906 2.024 2.024 2.024s2.024-0.906 2.024-2.024v-1.619c-0.001-1.117-0.907-2.022-2.024-2.024zM26.81 25.31c0 0.671-0.544 1.214-1.214 1.214s-1.214-0.544-1.214-1.214v-1.619c0.001-0.25 0.079-0.494 0.224-0.698s0.349-0.358 0.585-0.442v1.145c0 0.221 0.179 0.4 0.4 0.4h0.010c0.221 0 0.4-0.179 0.4-0.4v-1.145c0.236 0.083 0.44 0.238 0.585 0.442s0.223 0.448 0.224 0.698v1.619zM20.738 4.667h-16.19c-0.671 0-1.214 0.544-1.214 1.214v9.714c0 0.671 0.544 1.214 1.214 1.214h5.667v1.687c-0 0.41-0.332 0.742-0.742 0.742h-0.882c-0.221 0-0.4 0.179-0.4 0.4v0.010c0 0.221 0.179 0.4 0.4 0.4h7.295c0.221 0 0.4-0.179 0.4-0.4v-0.010c0-0.221-0.179-0.4-0.4-0.4h-0.882c-0.41-0-0.742-0.332-0.742-0.742v-1.687h6.476c0.671 0 1.214-0.544 1.214-1.214v-9.714c0-0.671-0.544-1.214-1.214-1.214zM10.834 19.238c0.125-0.227 0.19-0.483 0.189-0.742v-1.687h0.81v1.72h0.81v-1.72h0.81v1.687c-0 0.259 0.065 0.515 0.189 0.742h-2.807zM21.143 15.595c0 0.107-0.043 0.21-0.119 0.286s-0.179 0.119-0.286 0.119h-16.19c-0.107 0-0.21-0.043-0.286-0.119s-0.119-0.179-0.119-0.286v-2.024h17v2.024zM21.143 12.762h-17v-6.881c0-0.107 0.043-0.21 0.119-0.286s0.179-0.119 0.286-0.119h16.19c0.107 0 0.21 0.043 0.286 0.119s0.119 0.179 0.119 0.286v6.881z"></path>
        <path fill="#50ab09" style="fill: var(--color1, #50ab09)" d="M26.405 15.248v-0.467c0-0.221-0.179-0.4-0.4-0.4h-0.010c-0.221 0-0.4 0.179-0.4 0.4v0.467c-0.789 0.204-1.304 0.963-1.201 1.772s0.791 1.415 1.606 1.415c0.815 0 1.503-0.606 1.606-1.415s-0.412-1.568-1.201-1.772zM26 17.619c-0.366 0.001-0.687-0.244-0.781-0.598s0.060-0.726 0.377-0.909v0.697h0.81v-0.697c0.317 0.183 0.472 0.556 0.377 0.909s-0.416 0.599-0.781 0.598zM11.833 14.781c0-0.221 0.179-0.4 0.4-0.4h0.010c0.221 0 0.4 0.179 0.4 0.4v0.010c0 0.221-0.179 0.4-0.4 0.4h-0.010c-0.221 0-0.4-0.179-0.4-0.4v-0.010z"></path>
    </symbol>

    <!-- PAW -->

    <symbol id="icon-paw" viewBox="0 0 32 32">
<path fill="#50ab09" style="fill: var(--color1, #50ab09)" d="M23.056 30.273c-0.74 0-1.5-0.19-2.213-0.571-3.090-1.646-6.197-1.646-9.286 0-1.436 0.766-3.059 0.759-4.342-0.018-1.438-0.825-2.428-2.368-2.637-4.122-0.211-1.765 0.369-3.442 1.592-4.602 0.715-0.717 1.612-1.225 2.594-1.469 0.787-0.177 1.441-0.727 1.803-1.509 0.102-0.184 0.171-0.365 0.234-0.605 0.58-2.209 3.103-4.146 5.399-4.146s4.819 1.937 5.398 4.146c0.064 0.24 0.132 0.421 0.217 0.571 0.38 0.817 1.034 1.366 1.81 1.541 0.991 0.245 1.896 0.757 2.615 1.482 1.213 1.149 1.793 2.826 1.582 4.591-0.21 1.754-1.199 3.297-2.648 4.128-0.639 0.385-1.372 0.587-2.118 0.583zM16.2 27.461c1.701 0 3.422 0.457 5.114 1.359 1.121 0.598 2.375 0.602 3.352 0.009 1.186-0.681 1.991-1.944 2.163-3.385 0.173-1.449-0.296-2.818-1.287-3.758-0.59-0.597-1.332-1.020-2.147-1.224-1.072-0.241-1.975-0.993-2.47-2.059-0.109-0.191-0.208-0.447-0.293-0.771-0.468-1.781-2.58-3.401-4.432-3.401s-3.964 1.621-4.431 3.4c-0.086 0.325-0.184 0.581-0.311 0.807-0.477 1.031-1.381 1.782-2.463 2.026-0.806 0.202-1.541 0.621-2.126 1.211-1.002 0.95-1.471 2.32-1.298 3.768 0.172 1.441 0.977 2.704 2.153 3.379 0.987 0.598 2.241 0.596 3.363-0.003 1.691-0.901 3.412-1.358 5.114-1.358l-0.001 0zM11.939 10.867c-0.94 0-1.729-0.197-2.35-0.589-0.877-0.554-1.367-1.452-1.457-2.669-0.089-1.205 0.233-2.6 0.863-3.732 0.723-1.297 1.721-2.057 2.812-2.138 1.119-0.085 3.031 0.437 3.357 4.839 0.1 1.344-0.011 2.244-0.36 2.917-0.42 0.813-1.202 1.267-2.323 1.35-0.186 0.014-0.367 0.021-0.542 0.021zM12.010 2.732c-0.043 0-0.086 0.002-0.13 0.005-0.733 0.054-1.466 0.647-2.011 1.627-0.538 0.967-0.815 2.153-0.74 3.171 0.067 0.896 0.392 1.516 0.994 1.897 0.544 0.343 1.336 0.486 2.283 0.417 1.004-0.075 1.334-0.473 1.51-0.813 0.255-0.493 0.335-1.25 0.251-2.384-0.134-1.803-0.618-3.921-2.157-3.921v0.001zM4.986 18.323c-0.462 0-0.888-0.071-1.276-0.213-0.974-0.358-1.641-1.133-1.984-2.304-0.34-1.16-0.317-2.592 0.062-3.829 0.434-1.421 1.252-2.372 2.301-2.68 0.741-0.217 1.834-0.222 2.842 0.987 0.578 0.694 1.068 1.717 1.456 3.041 0.531 1.813 0.814 3.989-1.73 4.735-0.598 0.175-1.157 0.263-1.671 0.263zM4.841 10.185c-0.159 0.001-0.318 0.025-0.47 0.072-0.705 0.207-1.298 0.94-1.627 2.012-0.324 1.059-0.345 2.276-0.058 3.256 0.252 0.862 0.7 1.401 1.369 1.646 0.604 0.222 1.407 0.198 2.321-0.071 1.24-0.363 1.774-1.027 1.051-3.494-0.344-1.175-0.781-2.103-1.264-2.682-0.414-0.497-0.842-0.739-1.322-0.739h-0zM27.414 18.323c-0.514 0-1.073-0.088-1.671-0.263-2.544-0.746-2.261-2.922-1.73-4.735 0.388-1.324 0.878-2.347 1.456-3.041 1.007-1.209 2.101-1.204 2.842-0.987 1.050 0.308 1.867 1.259 2.301 2.68 0.379 1.238 0.402 2.669 0.062 3.829-0.343 1.171-1.010 1.946-1.984 2.304-0.387 0.142-0.814 0.213-1.276 0.213zM27.559 10.185c-0.479 0-0.907 0.242-1.322 0.739-0.483 0.58-0.92 1.507-1.264 2.682-0.722 2.467-0.188 3.131 1.051 3.494 0.914 0.268 1.717 0.293 2.321 0.071 0.669-0.245 1.117-0.784 1.369-1.646 0.288-0.98 0.266-2.197-0.058-3.256-0.328-1.072-0.921-1.805-1.626-2.012-0.152-0.046-0.311-0.070-0.471-0.072zM20.461 10.867c-0.175 0-0.356-0.007-0.542-0.021-1.121-0.083-1.903-0.537-2.323-1.35-0.348-0.673-0.459-1.573-0.36-2.917 0.325-4.402 2.248-4.925 3.357-4.839 1.091 0.081 2.090 0.84 2.812 2.138 0.63 1.131 0.952 2.526 0.863 3.731-0.090 1.217-0.58 2.115-1.457 2.669-0.621 0.392-1.41 0.589-2.35 0.589zM20.39 2.732c-1.539 0-2.024 2.117-2.157 3.921-0.084 1.134-0.004 1.891 0.251 2.384 0.176 0.339 0.506 0.738 1.51 0.813 0.949 0.068 1.739-0.074 2.283-0.417 0.602-0.381 0.927-1.001 0.994-1.897 0.075-1.018-0.201-2.204-0.74-3.171-0.545-0.98-1.279-1.573-2.012-1.627-0.043-0.003-0.086-0.004-0.129-0.005v-0.001z"></path>
</symbol>

    <!-- BROOM -->

    <symbol id="icon-broom" viewBox="0 0 32 32">
<path fill="#50ab09" style="fill: var(--color1, #50ab09)" d="M29.44 2.432c-0.725-0.555-1.749-0.427-2.347 0.299l-11.904 15.147-1.067-0.853c-0.725-0.555-1.792-0.469-2.389 0.299l-0.768 0.981c-2.261 2.901-4.736 2.347-8.533 1.707-0.256-0.043-0.469 0.128-0.512 0.384-0.384 4.523 8.917 10.411 10.667 9.429 2.517-1.451 3.2-2.304 4.992-4.608 0.683-0.853 0.555-0.725 1.664-2.091 0.555-0.725 0.427-1.792-0.299-2.389l-1.067-0.853 11.904-15.189c0.512-0.683 0.384-1.707-0.341-2.261zM4.736 24.448c0.725 0.085 1.408 0.043 1.963-0.085-0.469 0.469-0.896 0.811-1.152 0.939-0.256-0.256-0.555-0.555-0.811-0.853zM9.685 28.245c-0.512-0.213-0.981-0.512-1.451-0.811 1.109-0.256 2.347-0.811 3.243-1.28-0.512 0.811-1.195 1.707-1.792 2.091zM16.896 24.704c-1.707 2.219-2.304 2.987-4.608 4.309-0.555-0.043-1.109-0.213-1.664-0.427 1.195-1.067 2.261-3.072 2.389-3.371 0.171-0.384-0.213-0.768-0.597-0.555-0.043 0-3.285 1.963-5.163 2.048-0.341-0.256-0.683-0.555-1.024-0.811 0.853-0.555 1.877-1.749 2.261-2.176 0.299-0.341-0.128-0.853-0.512-0.64 0 0-1.92 0.981-4.011 0.341-0.64-0.896-1.024-1.749-1.109-2.475 3.413 0.597 6.144 1.024 8.576-1.749l6.059 4.736c-0.213 0.299-0.427 0.555-0.597 0.768zM18.517 22.613l-0.512 0.64-6.101-4.779 0.512-0.64c0.299-0.384 0.811-0.427 1.152-0.128l4.779 3.755c0.384 0.256 0.469 0.768 0.171 1.152zM29.056 4.224l-11.904 15.147-1.28-0.981 11.904-15.147c0.256-0.341 0.768-0.427 1.152-0.128 0.341 0.256 0.384 0.768 0.128 1.109z"></path>
</symbol>

    <!-- BOOK -->

    <symbol id="icon-book" viewBox="0 0 32 32">
<path fill="#50ab09" style="fill: var(--color1, #50ab09)" d="M30.286 9.619h-1.075v-0.94c-0-0.322-0.128-0.63-0.356-0.858s-0.536-0.356-0.858-0.356h-7.329c-0.561-0.698-1.272-1.262-2.080-1.649s-1.693-0.588-2.589-0.588-1.781 0.201-2.589 0.588c-0.808 0.387-1.519 0.951-2.080 1.649h-7.329c-0.322 0-0.63 0.128-0.858 0.356s-0.356 0.536-0.356 0.858v0.94h-1.073c-0.322 0-0.63 0.128-0.858 0.356s-0.356 0.536-0.356 0.858v18.241c0 0.322 0.128 0.63 0.356 0.858s0.536 0.356 0.858 0.356h12.371l0.427 0.636c0.046 0.068 0.108 0.124 0.18 0.162s0.153 0.059 0.235 0.059h2.146c0.082 0 0.163-0.020 0.235-0.059s0.134-0.095 0.18-0.163l0.426-0.636h12.372c0.322-0 0.63-0.128 0.858-0.356s0.356-0.536 0.356-0.858v-18.241c-0-0.322-0.128-0.63-0.356-0.858s-0.536-0.356-0.858-0.356zM3.788 26.105h10.057c0.34 0 0.672 0.106 0.951 0.301s0.49 0.472 0.606 0.792c-0.144-0.043-0.293-0.065-0.444-0.065h-10.956c-0.057-0.001-0.111-0.024-0.151-0.063s-0.063-0.094-0.063-0.151l0-0.814zM15.999 6.227c1.325 0.002 2.595 0.529 3.532 1.465s1.464 2.207 1.465 3.532c0 1.575-0.707 2.663-1.455 3.816-0.517 0.796-1.048 1.616-1.367 2.62h-0.625v-3.304c-0-0.037-0.004-0.074-0.012-0.111 0.396-0.090 0.744-0.324 0.979-0.655s0.339-0.737 0.294-1.141c-0.046-0.403-0.238-0.776-0.541-1.046s-0.695-0.42-1.101-0.42c-0.133 0-0.26 0.053-0.354 0.146s-0.146 0.221-0.146 0.354c0 0.133 0.053 0.26 0.146 0.354s0.221 0.146 0.354 0.146c0.086-0.001 0.172 0.015 0.251 0.048s0.152 0.080 0.214 0.141c0.061 0.061 0.11 0.133 0.143 0.212s0.050 0.165 0.050 0.251c0 0.086-0.017 0.171-0.050 0.251s-0.082 0.152-0.143 0.212c-0.061 0.061-0.134 0.108-0.214 0.141s-0.165 0.049-0.251 0.048h-2.337c-0.086 0.001-0.172-0.015-0.251-0.048s-0.152-0.080-0.214-0.141c-0.061-0.061-0.11-0.133-0.143-0.212s-0.050-0.165-0.050-0.251 0.017-0.171 0.050-0.251c0.033-0.079 0.082-0.152 0.143-0.212s0.134-0.108 0.214-0.141 0.165-0.049 0.251-0.048c0.133 0 0.26-0.053 0.354-0.146s0.146-0.221 0.146-0.354c0-0.133-0.053-0.26-0.146-0.354s-0.221-0.146-0.354-0.146c-0.406-0-0.798 0.149-1.101 0.42s-0.495 0.643-0.541 1.046c-0.046 0.403 0.059 0.809 0.294 1.141s0.583 0.564 0.979 0.655c-0.008 0.036-0.012 0.073-0.013 0.111v3.304h-0.627c-0.318-1.005-0.85-1.826-1.367-2.622-0.748-1.152-1.455-2.241-1.455-3.814 0.002-1.325 0.529-2.595 1.465-3.532s2.207-1.464 3.532-1.465zM18.052 19.629c0 0.014-0.001 0.028-0.001 0.042h-4.104c0-0.014-0.001-0.028-0.001-0.042v-0.969h4.106l-0 0.969zM17.767 20.671c-0.181 0.308-0.44 0.563-0.75 0.74s-0.661 0.271-1.018 0.271-0.708-0.093-1.018-0.271c-0.31-0.177-0.568-0.433-0.75-0.74h3.536zM15.445 14.288h1.11c-0.003 0.023-0.005 0.046-0.005 0.069v3.304h-1.099v-3.304c-0-0.023-0.002-0.046-0.005-0.069zM4.001 8.465h6.674c-0.444 0.852-0.675 1.799-0.674 2.76 0 1.87 0.822 3.135 1.616 4.359 0.55 0.846 1.069 1.647 1.328 2.64v1.406c0 0.81 0.322 1.586 0.894 2.159s1.349 0.894 2.159 0.894c0.81 0 1.586-0.322 2.159-0.894s0.894-1.349 0.894-2.159v-1.406c0.259-0.993 0.779-1.792 1.328-2.638 0.795-1.224 1.616-2.49 1.616-4.36 0.001-0.961-0.23-1.908-0.674-2.76h6.674c0.057 0 0.111 0.023 0.151 0.063s0.063 0.095 0.063 0.151v16.427h-10.057c-0.602-0-1.185 0.205-1.654 0.581v-1.628c0-0.133-0.053-0.26-0.146-0.354s-0.221-0.146-0.354-0.146c-0.133 0-0.26 0.053-0.354 0.146s-0.146 0.221-0.146 0.354v1.628c-0.469-0.376-1.053-0.581-1.654-0.581h-10.057v-16.427c0.001-0.056 0.023-0.11 0.063-0.15s0.094-0.063 0.15-0.064zM28.211 26.105v0.815c-0 0.057-0.023 0.111-0.063 0.151s-0.094 0.063-0.151 0.063h-10.956c-0.15-0-0.3 0.022-0.444 0.065 0.116-0.32 0.327-0.597 0.606-0.792s0.61-0.301 0.951-0.301l10.058-0zM30.5 29.074c-0.001 0.057-0.024 0.111-0.064 0.15s-0.094 0.063-0.15 0.063h-12.639c-0.082 0-0.163 0.020-0.236 0.059s-0.134 0.095-0.18 0.163l-0.426 0.636h-1.612l-0.427-0.636c-0.046-0.068-0.108-0.124-0.18-0.163s-0.153-0.059-0.235-0.059h-12.637c-0.057-0-0.111-0.023-0.151-0.063s-0.063-0.095-0.063-0.151v-18.241c0-0.057 0.023-0.111 0.063-0.151s0.095-0.063 0.151-0.063h1.074v16.301c0 0.322 0.128 0.63 0.356 0.858s0.536 0.356 0.858 0.356h10.956c0.144 0 0.281 0.057 0.383 0.159s0.159 0.239 0.159 0.383c0 0.133 0.053 0.26 0.146 0.354s0.221 0.146 0.354 0.146 0.26-0.053 0.354-0.146c0.094-0.094 0.146-0.221 0.146-0.354 0.002-0.143 0.060-0.28 0.161-0.381s0.238-0.159 0.381-0.161h10.956c0.322-0 0.63-0.128 0.858-0.356s0.356-0.536 0.356-0.858v-16.301h1.075c0.057 0.001 0.11 0.024 0.15 0.064s0.063 0.094 0.063 0.15v18.241zM5.351 13.545c0-0.133 0.053-0.26 0.146-0.354s0.221-0.146 0.354-0.146h3.154c0.133 0 0.26 0.053 0.354 0.146s0.146 0.221 0.146 0.354c0 0.133-0.053 0.26-0.146 0.354s-0.221 0.146-0.354 0.146h-3.154c-0.133 0-0.26-0.053-0.354-0.146s-0.146-0.221-0.146-0.354zM5.351 15.705c0-0.133 0.053-0.26 0.146-0.354s0.221-0.146 0.354-0.146h4.213c0.133 0 0.26 0.053 0.354 0.146s0.146 0.221 0.146 0.354c0 0.133-0.053 0.26-0.146 0.354s-0.221 0.146-0.354 0.146h-4.213c-0.133 0-0.26-0.053-0.354-0.146s-0.146-0.221-0.146-0.354zM5.351 17.865c0-0.133 0.053-0.26 0.146-0.354s0.221-0.146 0.354-0.146h5.51c0.133 0 0.26 0.053 0.354 0.146s0.146 0.221 0.146 0.354c0 0.133-0.053 0.26-0.146 0.354s-0.221 0.146-0.354 0.146h-5.51c-0.133 0-0.26-0.053-0.354-0.146s-0.146-0.221-0.146-0.354zM5.351 20.023c0-0.133 0.053-0.26 0.146-0.354s0.221-0.146 0.354-0.146h5.738c0.133 0 0.26 0.053 0.354 0.146s0.146 0.221 0.146 0.354c0 0.133-0.053 0.26-0.146 0.354s-0.221 0.146-0.354 0.146h-5.738c-0.133 0-0.26-0.053-0.354-0.146s-0.146-0.221-0.146-0.354zM5.351 22.182c0-0.133 0.053-0.26 0.146-0.354s0.221-0.146 0.354-0.146h6.534c0.133 0 0.26 0.053 0.354 0.146s0.146 0.221 0.146 0.354-0.053 0.26-0.146 0.354c-0.094 0.094-0.221 0.146-0.354 0.146h-6.534c-0.133 0-0.26-0.053-0.354-0.146s-0.146-0.221-0.146-0.354zM22.496 13.545c0-0.133 0.053-0.26 0.146-0.354s0.221-0.146 0.354-0.146h3.152c0.133 0 0.26 0.053 0.354 0.146s0.146 0.221 0.146 0.354c0 0.133-0.053 0.26-0.146 0.354s-0.221 0.146-0.354 0.146h-3.152c-0.133 0-0.26-0.053-0.354-0.146s-0.146-0.221-0.146-0.354zM21.436 15.705c0-0.133 0.053-0.26 0.146-0.354s0.221-0.146 0.354-0.146h4.211c0.133 0 0.26 0.053 0.354 0.146s0.146 0.221 0.146 0.354c0 0.133-0.053 0.26-0.146 0.354s-0.221 0.146-0.354 0.146h-4.211c-0.133 0-0.26-0.053-0.354-0.146s-0.146-0.221-0.146-0.354zM20.139 17.865c0-0.133 0.053-0.26 0.146-0.354s0.221-0.146 0.354-0.146h5.508c0.133 0 0.26 0.053 0.354 0.146s0.146 0.221 0.146 0.354c0 0.133-0.053 0.26-0.146 0.354s-0.221 0.146-0.354 0.146h-5.508c-0.133 0-0.26-0.053-0.354-0.146s-0.146-0.221-0.146-0.354zM19.911 20.023c0-0.133 0.053-0.26 0.146-0.354s0.221-0.146 0.354-0.146h5.737c0.133 0 0.26 0.053 0.354 0.146s0.146 0.221 0.146 0.354-0.053 0.26-0.146 0.354c-0.094 0.094-0.221 0.146-0.354 0.146h-5.737c-0.133 0-0.26-0.053-0.354-0.146s-0.146-0.221-0.146-0.354zM19.113 22.182c0-0.133 0.053-0.26 0.146-0.354s0.221-0.146 0.354-0.146h6.534c0.133 0 0.26 0.053 0.354 0.146s0.146 0.221 0.146 0.354-0.053 0.26-0.146 0.354c-0.094 0.094-0.221 0.146-0.354 0.146h-6.534c-0.133 0-0.26-0.053-0.354-0.146s-0.146-0.221-0.146-0.354zM6.38 10.475c0-0.133 0.053-0.26 0.146-0.354s0.221-0.146 0.354-0.146h1.27c0.133 0 0.26 0.053 0.354 0.146s0.146 0.221 0.146 0.354c0 0.133-0.053 0.26-0.146 0.354s-0.221 0.146-0.354 0.146h-1.27c-0.133 0-0.26-0.053-0.354-0.146s-0.146-0.221-0.146-0.354zM21.188 5.788c-0.099 0-0.195-0.029-0.278-0.084s-0.146-0.133-0.184-0.224c-0.038-0.091-0.048-0.192-0.029-0.289s0.067-0.186 0.137-0.256l1.26-1.261c0.094-0.093 0.221-0.145 0.353-0.145s0.259 0.053 0.352 0.146c0.093 0.093 0.146 0.22 0.147 0.352s-0.051 0.259-0.144 0.353l-1.26 1.262c-0.046 0.047-0.102 0.083-0.162 0.109s-0.126 0.038-0.192 0.038zM15.999 3.839c-0.133 0-0.26-0.053-0.354-0.146s-0.146-0.221-0.146-0.354v-1.984c0-0.133 0.053-0.26 0.146-0.354s0.221-0.146 0.354-0.146 0.26 0.053 0.354 0.146c0.094 0.094 0.146 0.221 0.146 0.354v1.984c0 0.133-0.053 0.26-0.146 0.354s-0.221 0.146-0.354 0.146zM10.458 5.641l-1.261-1.261c-0.092-0.094-0.143-0.221-0.143-0.352s0.053-0.258 0.146-0.351c0.093-0.093 0.219-0.146 0.351-0.146s0.258 0.050 0.352 0.143l1.262 1.261c0.094 0.094 0.146 0.221 0.146 0.354s-0.053 0.26-0.146 0.354c-0.094 0.094-0.221 0.146-0.354 0.146s-0.26-0.053-0.354-0.146zM23.349 10.475c0-0.133 0.053-0.26 0.146-0.354s0.221-0.146 0.354-0.146h1.27c0.133 0 0.26 0.053 0.354 0.146s0.146 0.221 0.146 0.354c0 0.133-0.053 0.26-0.146 0.354s-0.221 0.146-0.354 0.146h-1.27c-0.133 0-0.26-0.053-0.354-0.146s-0.146-0.221-0.146-0.354z"></path>
</symbol>

<!-- LOGO-FOOTER -->

<symbol id="icon-logo-footer" viewBox="0 0 120 32">
<path d="M29.296 24.631h2.422v-17.93h6.188v-1.992h-8.61v19.922zM41.935 23.583c0.352-0.601 0.679-1.285 0.837-1.973 0.225-0.955 0.262-2.669 0.318-2.889 0.038-0.147 0.056-4.154 0.056-12.020l4.722 0.009v18.017h2.39v-20.018h-9.358v14.013c-0.018 0.757-0.207 1.726-0.374 2.461-0.117 0.515-0.113 0.698-0.374 1.149-0.192 0.335-0.769 0.7-1.097 0.88-0.316 0.157-0.66 0.236-1.009 0.231v1.285c0.145 0.064 0.297 0.112 0.451 0.143 0.373 0.102 0.757 0.15 1.141 0.143 0.432-0.002 0.857-0.12 1.235-0.343 0.433-0.264 0.798-0.637 1.062-1.087zM56.696 13.687c-0.567-0.627-0.85-1.691-0.851-3.193s0.284-2.565 0.851-3.192c0.567-0.627 1.473-0.941 2.717-0.941h1.92v8.267h-1.92c-1.244-0-2.15-0.314-2.717-0.941zM55.844 17.020c-0.406 0.662-0.686 1.397-0.823 2.166l-0.548 2.423c-0.113 0.504-0.349 0.97-0.686 1.354-0.416 0.37-0.961 0.55-1.509 0.498v1.285c0.171 0.059 0.345 0.106 0.521 0.142 0.367 0.1 0.745 0.148 1.125 0.142 1.555 0 2.607-1.14 3.156-3.421l0.549-2.423c0.238-0.988 0.594-1.662 1.070-2.024 0.44-0.348 0.98-0.539 1.536-0.541h1.098v8.123h2.47v-19.667c-0.686-0.207-1.389-0.355-2.099-0.442-0.761-0.089-1.526-0.132-2.291-0.128-0.943-0.019-1.885 0.092-2.8 0.328-0.701 0.18-1.344 0.543-1.866 1.055-0.497 0.521-0.856 1.164-1.044 1.867-0.236 0.892-0.347 1.813-0.329 2.736-0.014 0.764 0.097 1.525 0.329 2.252 0.191 0.592 0.479 1.146 0.851 1.639 0.324 0.427 0.731 0.781 1.193 1.040 0.415 0.235 0.864 0.399 1.331 0.485v0.115c-0.509 0.178-0.945 0.529-1.234 0.995zM75.83 4.709v8.823h-5.846v-8.823h-2.505v19.922h2.505v-9.107h5.846v9.107h2.505v-19.922h-2.505zM84.556 15.239h6.055v-1.992h-6.055v-6.546h6.881v-1.992h-9.358v19.922h9.358v-1.992h-6.88v-7.4zM105.258 28.845h1.527v-6.247h-1.804v-17.889h-2.499v17.889h-5.551v-17.889h-2.499v19.877h9.993c0.080 1.452 0.36 2.886 0.834 4.26zM113.748 14.628c1.244 0 2.15 0.318 2.717 0.955s0.85 1.743 0.851 3.32c0 1.577-0.284 2.684-0.851 3.32s-1.473 0.955-2.717 0.955h-1.92v-8.551h1.92zM111.889 12.858v-8.15h-2.483v19.731c0.69 0.208 1.395 0.356 2.11 0.443 0.764 0.089 1.533 0.132 2.303 0.129 0.949 0.020 1.895-0.096 2.813-0.343 0.704-0.189 1.349-0.558 1.875-1.072 0.503-0.531 0.864-1.186 1.048-1.901 0.238-0.923 0.35-1.876 0.331-2.831 0-2.288-0.428-3.908-1.283-4.861s-2.174-1.43-3.958-1.43c-0.478 0.003-0.956 0.032-1.432 0.086-0.445 0.043-0.887 0.11-1.325 0.2z"></path>
<path d="M14.283 4.507c-6.53 2.188-12.037 6.649-14.283 13.296 2.22 6.571 7.676 11.082 14.283 13.296 5.875-4.501 9.079-8.115 11.436-13.296-3.383-2.257-4.804-3.419-7.547-6.911-3.675 1.696-6.873 3.672-9.707 6.839 1.017 1.439 2.705 2.783 4.070 3.886 1.989-1.453 3.506-2.868 4.489-4.082 0.616 0.748 1.311 1.246 1.973 1.662-1.709 2.889-3.627 4.476-5.996 5.991-3.558-1.872-6.418-5.111-7.808-7.85 2.605-4.268 6.691-7.15 11.335-8.756-0.752-1.309-1.738-2.528-2.244-4.074z"></path>
<path d="M30.538 30.262c0.687 0 1.163-0.53 1.163-1.374 0-0.849-0.476-1.368-1.163-1.368-0.368 0-0.692 0.189-0.882 0.454v-0.389h-0.406v3.607h0.406v-1.39c0.211 0.292 0.525 0.46 0.882 0.46zM30.435 29.9c-0.319 0-0.638-0.195-0.779-0.422v-1.179c0.141-0.227 0.46-0.416 0.779-0.416 0.525 0 0.838 0.427 0.838 1.006s-0.314 1.011-0.838 1.011z"></path>
<path d="M33.487 30.262c0.795 0 1.293-0.617 1.293-1.374s-0.498-1.368-1.293-1.368-1.293 0.611-1.293 1.368c0 0.757 0.498 1.374 1.293 1.374zM33.487 29.9c-0.557 0-0.871-0.476-0.871-1.011 0-0.53 0.314-1.006 0.871-1.006s0.865 0.476 0.865 1.006c0 0.535-0.308 1.011-0.865 1.011z"></path>
<path d="M36.366 30.262c0.752 0 1.195-0.325 1.195-0.763 0-0.433-0.454-0.617-0.757-0.638 0.308-0.038 0.703-0.249 0.703-0.638 0-0.444-0.498-0.703-1.201-0.698-0.476 0-0.828 0.168-1.071 0.416l0.211 0.249c0.222-0.227 0.508-0.335 0.876-0.335 0.433 0 0.763 0.168 0.763 0.416 0 0.297-0.341 0.438-0.773 0.438h-0.584v0.33h0.584c0.46 0 0.822 0.108 0.822 0.433 0 0.276-0.303 0.454-0.768 0.454-0.389 0-0.736-0.119-0.979-0.352l-0.2 0.26c0.26 0.26 0.654 0.427 1.179 0.427z"></path>
<path d="M39.506 30.262c0.687 0 1.163-0.53 1.163-1.374 0-0.849-0.476-1.368-1.163-1.368-0.368 0-0.692 0.189-0.882 0.454v-0.389h-0.406v3.607h0.406v-1.39c0.211 0.292 0.525 0.46 0.882 0.46zM39.404 29.9c-0.319 0-0.638-0.195-0.779-0.422v-1.179c0.141-0.227 0.46-0.416 0.779-0.416 0.525 0 0.838 0.427 0.838 1.006s-0.314 1.011-0.838 1.011z"></path>
<path d="M42.455 30.262c0.795 0 1.293-0.617 1.293-1.374s-0.498-1.368-1.293-1.368-1.293 0.611-1.293 1.368c0 0.757 0.498 1.374 1.293 1.374zM42.455 29.9c-0.557 0-0.871-0.476-0.871-1.011 0-0.53 0.314-1.006 0.871-1.006s0.865 0.476 0.865 1.006c0 0.535-0.308 1.011-0.865 1.011z"></path>
<path d="M45.55 29.9c-0.557 0-0.871-0.476-0.871-1.017 0-0.525 0.314-1.001 0.871-1.001s0.865 0.476 0.865 1.001c0 0.541-0.308 1.017-0.865 1.017zM45.55 30.262c0.806 0 1.287-0.627 1.287-1.379 0-0.741-0.481-1.363-1.222-1.363-0.465 0-0.795 0.26-0.984 0.557 0.092-0.444 0.325-0.779 1.098-0.887 0.444-0.059 1.028-0.173 1.028-0.6h-0.395c0 0.108-0.162 0.179-0.736 0.265-0.909 0.119-1.368 0.644-1.368 1.915 0 0.865 0.492 1.493 1.293 1.493z"></path>
<path d="M49.829 30.197l-1.163-1.428 1.157-1.184h-0.514l-1.374 1.39v-1.39h-0.406v2.612h0.406v-0.746l0.433-0.427 0.941 1.174h0.519z"></path>
<path d="M52.348 30.197v-1.796c0-0.633-0.46-0.882-1.011-0.882-0.427 0-0.763 0.141-1.044 0.433l0.189 0.281c0.233-0.249 0.487-0.362 0.8-0.362 0.379 0 0.66 0.2 0.66 0.552v0.471c-0.211-0.243-0.508-0.357-0.865-0.357-0.444 0-0.914 0.276-0.914 0.86 0 0.568 0.471 0.865 0.914 0.865 0.352 0 0.649-0.124 0.865-0.362v0.297h0.406zM51.223 29.97c-0.379 0-0.644-0.238-0.644-0.568 0-0.335 0.265-0.573 0.644-0.573 0.287 0 0.562 0.108 0.719 0.325v0.492c-0.157 0.216-0.433 0.325-0.719 0.325z"></path>
<path d="M55.437 30.197v-2.255h0.763v-0.357h-1.925v0.357h0.757v2.255h0.406z"></path>
<path d="M58.77 30.197v-1.796c0-0.633-0.46-0.882-1.011-0.882-0.427 0-0.763 0.141-1.044 0.433l0.189 0.281c0.233-0.249 0.487-0.362 0.8-0.362 0.379 0 0.66 0.2 0.66 0.552v0.471c-0.211-0.243-0.508-0.357-0.865-0.357-0.444 0-0.914 0.276-0.914 0.86 0 0.568 0.471 0.865 0.914 0.865 0.352 0 0.649-0.124 0.865-0.362v0.297h0.406zM57.646 29.97c-0.379 0-0.644-0.238-0.644-0.568 0-0.335 0.265-0.573 0.644-0.573 0.287 0 0.562 0.108 0.719 0.325v0.492c-0.157 0.216-0.433 0.325-0.719 0.325z"></path>
<path d="M63.152 30.197v-2.612h-2.174v2.612h0.406v-2.255h1.363v2.255h0.406z"></path>
<path d="M64.162 27.212c0.151 0 0.276-0.119 0.276-0.27s-0.124-0.276-0.276-0.276c-0.146 0-0.27 0.124-0.27 0.276s0.124 0.27 0.27 0.27zM64.368 30.197v-2.612h-0.406v2.612h0.406z"></path>
<path d="M64.868 30.862h0.406v-0.665h1.974v0.665h0.406v-1.022h-0.303v-2.255h-1.817l-0.168 1.287c-0.103 0.773-0.254 0.946-0.498 0.99v1.001zM65.891 27.942h1.055v1.898h-1.552c0.189-0.151 0.314-0.427 0.379-0.919l0.119-0.979z"></path>
<path d="M69.090 30.197v-2.255h0.763v-0.357h-1.925v0.357h0.757v2.255h0.406z"></path>
<path d="M71.672 30.262c0.687 0 1.163-0.53 1.163-1.374 0-0.849-0.476-1.368-1.163-1.368-0.368 0-0.692 0.189-0.882 0.454v-0.389h-0.406v3.607h0.406v-1.39c0.211 0.292 0.525 0.46 0.882 0.46zM71.569 29.9c-0.319 0-0.638-0.195-0.779-0.422v-1.179c0.141-0.227 0.46-0.416 0.779-0.416 0.525 0 0.838 0.427 0.838 1.006s-0.314 1.011-0.838 1.011z"></path>
<path d="M73.869 30.197l1.379-2.034v2.034h0.406v-2.612h-0.4l-1.368 1.996v-1.996h-0.406v2.612h0.389z"></path>
<path d="M79.13 30.197v-2.612h-0.541l-0.79 1.936-0.8-1.936h-0.535v2.612h0.406v-2.050l0.855 2.050h0.151l0.849-2.050v2.050h0.406z"></path>
<path d="M82.238 30.197l-1.163-1.428 1.157-1.184h-0.514l-1.374 1.39v-1.39h-0.406v2.612h0.406v-0.746l0.433-0.427 0.941 1.174h0.519z"></path>
<path d="M84.756 30.197v-1.796c0-0.633-0.46-0.882-1.011-0.882-0.427 0-0.763 0.141-1.044 0.433l0.189 0.281c0.233-0.249 0.487-0.362 0.8-0.362 0.379 0 0.66 0.2 0.66 0.552v0.471c-0.211-0.243-0.508-0.357-0.865-0.357-0.444 0-0.914 0.276-0.914 0.86 0 0.568 0.471 0.865 0.914 0.865 0.352 0 0.649-0.124 0.865-0.362v0.297h0.406zM83.631 29.97c-0.379 0-0.644-0.238-0.644-0.568 0-0.335 0.265-0.573 0.644-0.573 0.287 0 0.562 0.108 0.719 0.325v0.492c-0.157 0.216-0.433 0.325-0.719 0.325z"></path>
<path d="M88.116 30.262c0.476 0 0.757-0.195 0.957-0.454l-0.27-0.249c-0.173 0.233-0.395 0.341-0.665 0.341-0.557 0-0.903-0.433-0.903-1.011s0.346-1.006 0.903-1.006c0.27 0 0.492 0.103 0.665 0.341l0.27-0.249c-0.2-0.26-0.481-0.454-0.957-0.454-0.779 0-1.303 0.595-1.303 1.368 0 0.779 0.525 1.374 1.303 1.374z"></path>
<path d="M91.68 30.197v-1.796c0-0.633-0.46-0.882-1.011-0.882-0.427 0-0.763 0.141-1.044 0.433l0.189 0.281c0.233-0.249 0.487-0.362 0.8-0.362 0.379 0 0.66 0.2 0.66 0.552v0.471c-0.211-0.243-0.508-0.357-0.865-0.357-0.444 0-0.914 0.276-0.914 0.86 0 0.568 0.471 0.865 0.914 0.865 0.352 0 0.649-0.124 0.865-0.362v0.297h0.406zM90.555 29.97c-0.379 0-0.644-0.238-0.644-0.568 0-0.335 0.265-0.573 0.644-0.573 0.287 0 0.562 0.108 0.719 0.325v0.492c-0.157 0.216-0.433 0.325-0.719 0.325z"></path>
<path d="M92.883 30.197l1.379-2.034v2.034h0.406v-2.612h-0.4l-1.368 1.996v-1.996h-0.406v2.612h0.389zM94.527 26.811l-0.2-0.173c-0.168 0.243-0.433 0.389-0.746 0.389-0.319 0-0.579-0.151-0.752-0.389l-0.2 0.173c0.222 0.292 0.568 0.476 0.952 0.476 0.389 0 0.73-0.184 0.946-0.476z"></path>
<path d="M96.359 30.197v-2.255h0.763v-0.357h-1.925v0.357h0.757v2.255h0.406z"></path>
<path d="M97.854 27.212c0.151 0 0.276-0.119 0.276-0.27s-0.124-0.276-0.276-0.276c-0.146 0-0.27 0.124-0.27 0.276s0.124 0.27 0.27 0.27zM98.060 30.197v-2.612h-0.406v2.612h0.406z"></path>
<path d="M100.334 30.197c0.481 0 0.763-0.287 0.763-0.709 0-0.297-0.211-0.573-0.476-0.638 0.222-0.070 0.422-0.281 0.422-0.595 0-0.395-0.276-0.671-0.736-0.671h-1.439v2.612h1.466zM100.253 29.84h-0.979v-0.806h0.979c0.276 0 0.422 0.195 0.422 0.406 0 0.249-0.162 0.4-0.422 0.4zM100.237 28.677h-0.963v-0.736h0.963c0.249 0 0.389 0.146 0.389 0.373 0 0.206-0.135 0.362-0.389 0.362z"></path>
<path d="M114.414 4.056v-2.255h0.763v-0.357h-1.925v0.357h0.757v2.255h0.406z"></path>
<path d="M118.375 4.056v-2.612h-0.541l-0.79 1.936-0.8-1.936h-0.535v2.612h0.406v-2.050l0.855 2.050h0.151l0.849-2.050v2.050h0.406z"></path>
</symbol>

<!-- Facebook -->

<symbol id="icon-facebook" viewBox="0 0 32 32">
<path d="M19 6h5v-6h-5c-3.86 0-7 3.14-7 7v3h-4v6h4v16h6v-16h5l1-6h-6v-3c0-0.542 0.458-1 1-1z"></path>
</symbol>

<!-- Instagram -->

<symbol id="icon-instagram" viewBox="0 0 32 32">
<path d="M16 2.881c4.275 0 4.781 0.019 6.462 0.094 1.563 0.069 2.406 0.331 2.969 0.55 0.744 0.288 1.281 0.638 1.837 1.194 0.563 0.563 0.906 1.094 1.2 1.838 0.219 0.563 0.481 1.412 0.55 2.969 0.075 1.688 0.094 2.194 0.094 6.463s-0.019 4.781-0.094 6.463c-0.069 1.563-0.331 2.406-0.55 2.969-0.288 0.744-0.637 1.281-1.194 1.837-0.563 0.563-1.094 0.906-1.837 1.2-0.563 0.219-1.413 0.481-2.969 0.55-1.688 0.075-2.194 0.094-6.463 0.094s-4.781-0.019-6.463-0.094c-1.563-0.069-2.406-0.331-2.969-0.55-0.744-0.288-1.281-0.637-1.838-1.194-0.563-0.563-0.906-1.094-1.2-1.837-0.219-0.563-0.481-1.413-0.55-2.969-0.075-1.688-0.094-2.194-0.094-6.463s0.019-4.781 0.094-6.463c0.069-1.563 0.331-2.406 0.55-2.969 0.288-0.744 0.638-1.281 1.194-1.838 0.563-0.563 1.094-0.906 1.838-1.2 0.563-0.219 1.412-0.481 2.969-0.55 1.681-0.075 2.188-0.094 6.463-0.094zM16 0c-4.344 0-4.887 0.019-6.594 0.094-1.7 0.075-2.869 0.35-3.881 0.744-1.056 0.412-1.95 0.956-2.837 1.85-0.894 0.888-1.438 1.781-1.85 2.831-0.394 1.019-0.669 2.181-0.744 3.881-0.075 1.713-0.094 2.256-0.094 6.6s0.019 4.887 0.094 6.594c0.075 1.7 0.35 2.869 0.744 3.881 0.413 1.056 0.956 1.95 1.85 2.837 0.887 0.887 1.781 1.438 2.831 1.844 1.019 0.394 2.181 0.669 3.881 0.744 1.706 0.075 2.25 0.094 6.594 0.094s4.888-0.019 6.594-0.094c1.7-0.075 2.869-0.35 3.881-0.744 1.050-0.406 1.944-0.956 2.831-1.844s1.438-1.781 1.844-2.831c0.394-1.019 0.669-2.181 0.744-3.881 0.075-1.706 0.094-2.25 0.094-6.594s-0.019-4.887-0.094-6.594c-0.075-1.7-0.35-2.869-0.744-3.881-0.394-1.063-0.938-1.956-1.831-2.844-0.887-0.887-1.781-1.438-2.831-1.844-1.019-0.394-2.181-0.669-3.881-0.744-1.712-0.081-2.256-0.1-6.6-0.1v0z"></path>
<path d="M16 7.781c-4.537 0-8.219 3.681-8.219 8.219s3.681 8.219 8.219 8.219 8.219-3.681 8.219-8.219c0-4.537-3.681-8.219-8.219-8.219zM16 21.331c-2.944 0-5.331-2.387-5.331-5.331s2.387-5.331 5.331-5.331c2.944 0 5.331 2.387 5.331 5.331s-2.387 5.331-5.331 5.331z"></path>
<path d="M26.462 7.456c0 1.060-0.859 1.919-1.919 1.919s-1.919-0.859-1.919-1.919c0-1.060 0.859-1.919 1.919-1.919s1.919 0.859 1.919 1.919z"></path>
</symbol>

<!-- Google+ -->

<symbol id="icon-google-plus" viewBox="0 0 32 32">
<path d="M10.181 14.294v3.494h5.775c-0.231 1.5-1.744 4.394-5.775 4.394-3.475 0-6.313-2.881-6.313-6.431s2.838-6.431 6.313-6.431c1.981 0 3.3 0.844 4.056 1.569l2.762-2.662c-1.775-1.656-4.075-2.662-6.819-2.662-5.631 0.006-10.181 4.556-10.181 10.188s4.55 10.181 10.181 10.181c5.875 0 9.775-4.131 9.775-9.95 0-0.669-0.075-1.181-0.163-1.688h-9.613z"></path>
<path d="M32 14h-3v-3h-3v3h-3v3h3v3h3v-3h3z"></path>
</symbol>

<!-- Twitter+ -->

<symbol id="icon-twitter" viewBox="0 0 32 32">
<path d="M32 7.075c-1.175 0.525-2.444 0.875-3.769 1.031 1.356-0.813 2.394-2.1 2.887-3.631-1.269 0.75-2.675 1.3-4.169 1.594-1.2-1.275-2.906-2.069-4.794-2.069-3.625 0-6.563 2.938-6.563 6.563 0 0.512 0.056 1.012 0.169 1.494-5.456-0.275-10.294-2.888-13.531-6.862-0.563 0.969-0.887 2.1-0.887 3.3 0 2.275 1.156 4.287 2.919 5.463-1.075-0.031-2.087-0.331-2.975-0.819 0 0.025 0 0.056 0 0.081 0 3.181 2.263 5.838 5.269 6.437-0.55 0.15-1.131 0.231-1.731 0.231-0.425 0-0.831-0.044-1.237-0.119 0.838 2.606 3.263 4.506 6.131 4.563-2.25 1.762-5.075 2.813-8.156 2.813-0.531 0-1.050-0.031-1.569-0.094 2.913 1.869 6.362 2.95 10.069 2.95 12.075 0 18.681-10.006 18.681-18.681 0-0.287-0.006-0.569-0.019-0.85 1.281-0.919 2.394-2.075 3.275-3.394z"></path>
</symbol>
</defs>
</svg>
